<svg xmlns="http://www.w3.org/2000/svg" viewBox="0 0 120 120" fill="none">
  <defs>
    <linearGradient id="bulbGradient" x1="0%" y1="0%" x2="100%" y2="100%">
      <stop offset="0%" style="stop-color:#fbbf24;stop-opacity:1" />
      <stop offset="50%" style="stop-color:#f59e0b;stop-opacity:1" />
      <stop offset="100%" style="stop-color:#d97706;stop-opacity:1" />
    </linearGradient>
    <linearGradient id="bookGradient" x1="0%" y1="0%" x2="100%" y2="100%">
      <stop offset="0%" style="stop-color:#8b5cf6;stop-opacity:1" />
      <stop offset="100%" style="stop-color:#7c3aed;stop-opacity:1" />
    </linearGradient>
    <filter id="glow" x="-50%" y="-50%" width="200%" height="200%">
      <feGaussianBlur stdDeviation="3" result="coloredBlur"/>
      <feMerge> 
        <feMergeNode in="coloredBlur"/>
        <feMergeNode in="SourceGraphic"/>
      </feMerge>
    </filter>
  </defs>
  
  <!-- Lightbulb -->
  <path d="M60 20C42 20 28 34 28 52C28 62 32 70 38 76V88C38 92.5 41.5 96 45 96H75C78.5 96 81 92.5 81 88V76C87 70 91 62 91 52C91 34 77 20 60 20Z" fill="url(#bulbGradient)" filter="url(#glow)"/>
  
  <!-- Bulb base -->
  <rect x="55" y="88" width="10" height="8" fill="#374151" rx="1"/>
  
  <!-- Book -->
  <rect x="30" y="50" width="30" height="20" rx="3" fill="url(#bookGradient)"/>
  <rect x="30" y="50" width="30" height="20" rx="3" fill="none" stroke="white" stroke-width="1" opacity="0.3"/>
  
  <!-- Book pages -->
  <rect x="35" y="55" width="20" height="1" fill="white" opacity="0.8"/>
  <rect x="35" y="58" width="15" height="1" fill="white" opacity="0.6"/>
  <rect x="35" y="61" width="18" height="1" fill="white" opacity="0.6"/>
  <rect x="35" y="64" width="12" height="1" fill="white" opacity="0.4"/>
  
  <!-- Light rays -->
  <circle cx="60" cy="35" r="3" fill="white" opacity="0.8"/>
  <circle cx="50" cy="40" r="2" fill="white" opacity="0.6"/>
  <circle cx="70" cy="40" r="2" fill="white" opacity="0.6"/>
  <circle cx="45" cy="45" r="1.5" fill="white" opacity="0.4"/>
  <circle cx="75" cy="45" r="1.5" fill="white" opacity="0.4"/>
  <circle cx="40" cy="50" r="1" fill="white" opacity="0.3"/>
  <circle cx="80" cy="50" r="1" fill="white" opacity="0.3"/>
</svg>
