<svg xmlns="http://www.w3.org/2000/svg" viewBox="0 0 400 100" fill="none">
  <defs>
    <style>
      .focus { fill: #10b981; }
      .relax { fill: #059669; }
      .night { fill: #6366f1; }
      .study { fill: #7c3aed; }
    </style>
  </defs>
  
  <!-- Focus Mode Icon -->
  <g transform="translate(0, 0)">
    <circle cx="25" cy="25" r="20" class="focus" opacity="0.1"/>
    <path d="M15 25C15 19.5 19.5 15 25 15C30.5 15 35 19.5 35 25C35 30.5 30.5 35 25 35C19.5 35 15 30.5 15 25Z" class="focus"/>
    <circle cx="25" cy="25" r="8" fill="white"/>
    <circle cx="25" cy="25" r="4" class="focus"/>
  </g>
  
  <!-- Relax Mode Icon -->
  <g transform="translate(100, 0)">
    <circle cx="25" cy="25" r="20" class="relax" opacity="0.1"/>
    <path d="M15 30C15 25 18 20 23 18C25 17 27 18 28 20C29 22 28 24 26 25C24 26 22 27 21 29C19 31 18 33 19 35C20 37 22 38 24 37C26 36 28 35 29 33C30 31 29 29 27 28C25 27 23 26 22 24C21 22 22 20 24 19C26 18 28 19 29 21C30 23 29 25 27 26C25 27 23 28 22 30C21 32 22 34 24 35C26 36 28 35 29 33C30 31 29 29 27 28" class="relax"/>
  </g>
  
  <!-- Night Mode Icon -->
  <g transform="translate(200, 0)">
    <circle cx="25" cy="25" r="20" class="night" opacity="0.1"/>
    <path d="M35 15C35 10 30 5 25 5C20 5 15 10 15 15C15 20 20 25 25 25C30 25 35 20 35 15ZM25 20C27.5 20 29.5 18 29.5 15.5C29.5 13 27.5 11 25 11C22.5 11 20.5 13 20.5 15.5C20.5 18 22.5 20 25 20Z" class="night"/>
    <circle cx="20" cy="12" r="1" fill="white"/>
    <circle cx="30" cy="8" r="0.5" fill="white"/>
    <circle cx="32" cy="18" r="0.8" fill="white"/>
  </g>
  
  <!-- Study Mode Icon -->
  <g transform="translate(300, 0)">
    <circle cx="25" cy="25" r="20" class="study" opacity="0.1"/>
    <rect x="15" y="20" width="20" height="15" rx="2" class="study"/>
    <rect x="18" y="23" width="14" height="1" fill="white"/>
    <rect x="18" y="26" width="10" height="1" fill="white"/>
    <rect x="18" y="29" width="12" height="1" fill="white"/>
    <rect x="18" y="32" width="8" height="1" fill="white"/>
  </g>
</svg>
